<svg xmlns="http://www.w3.org/2000/svg" viewBox="0 0 245.76 245.76"><rect width="245.76" height="245.76" fill="#00316D"/><path fill="#fff" fill-rule="evenodd" d="M191.06,70.61l-68.18,81.32l-31.11-34.37c0.45-2.33,4.76-13.09,10.95-18.39l20.17,20.94l53.8-63.09L191.06,70.61z"/><path fill="#fff" fill-rule="evenodd" d="M62.42,123.01v-0.21c0-34.08,26.1-59.84,60.46-59.84c11.89,0,22.77,3.08,31.92,8.52l-14.79,17.34c-5.06-2.57-10.86-4.01-17.13-4.01c-21.5,0-37.37,16.88-37.37,38.2v0.2c0,21.24,16,37.99,37.37,37.99c21.5,0,37.37-16.88,37.37-38.19c0-1.37-0.07-2.72-0.19-4.05l17.97-21.39c3.43,7.65,5.31,16.25,5.31,25.45c0,34.4-26.2,59.84-60.46,59.84C88.62,182.85,62.42,157.41,62.42,123.01"/></svg>
