<?xml version="1.0" encoding="UTF-8"?>
<!DOCTYPE svg PUBLIC "-//W3C//DTD SVG 1.1//EN" "http://www.w3.org/Graphics/SVG/1.1/DTD/svg11.dtd">
<!-- Creator: CorelDRAW -->
<svg xmlns="http://www.w3.org/2000/svg" xml:space="preserve" version="1.1" style="shape-rendering:geometricPrecision; text-rendering:geometricPrecision; image-rendering:optimizeQuality; fill-rule:evenodd; clip-rule:evenodd"
viewBox="340 1640 4430 765"
 xmlns:xlink="http://www.w3.org/1999/xlink"
 xmlns:xodm="http://www.corel.com/coreldraw/odm/2003">
 <defs>
  <style type="text/css">
   <![CDATA[
    .fil0 {fill:none}
    .fil1 {fill:white}
    .fil2 {fill:white;fill-rule:nonzero}
   ]]>
  </style>
 </defs>
 <g id="Layer_x0020_1">
  <metadata id="CorelCorpID_0Corel-Layer"/>
  <rect class="fil0" width="5000" height="4000"/>
  <rect class="fil0" width="5000" height="4000"/>
  <g id="_105553446346848">
   <path class="fil1" d="M4304.32 2024.92c4.86,68.57 63.54,115.41 130.82,115.41 49.05,0 89.38,-22.2 112.3,-65.76l0.89 -1.66 85.76 0 -1.88 4.35c-17.64,40.72 -44.6,75.66 -81.76,100.3 -34.27,22.73 -74.27,34.23 -115.31,34.23 -119.95,0 -214.18,-93.58 -214.18,-213.45 0,-119 93.71,-214.92 213.44,-214.92 55.91,0 109.41,20.21 149.52,59.55 47.71,48.47 67.63,111.9 60.99,179.13l-0.28 2.82 -340.31 0zm1.55 -65.6l257.06 0c-6.34,-61.4 -68.66,-105.59 -128.5,-104.43 -60.75,0 -122.27,41 -128.56,104.43z"/>
   <path class="fil1" d="M4091.15 2053.86l84.62 0 -1.1 3.96c-25.88,92.54 -109.17,153.97 -205.27,153.97 -122.51,0 -216.38,-92.1 -216.38,-214.18 0,-120.21 92.03,-214.19 212.71,-214.19 98.03,0 184,60.82 208.95,156.97l1.01 3.9 -84.59 0 -0.76 -2c-19.63,-51.19 -67.49,-81.54 -121.7,-81.54 -38.66,-0.71 -67.49,11.64 -95.28,37.96 -25.33,25.33 -37.9,63.52 -37.9,98.9 0,76.84 55.34,137.26 133.18,136.86 53.04,-0.28 101.4,-28.78 121.72,-78.67l0.79 -1.94z"/>
   <path class="fil1" d="M3625.5 1844.54c24.84,-41.62 66.05,-60.44 115.56,-61.12l3.16 -0.04 0 82.5 -8.24 0c-74.88,0 -106.09,43.57 -106.09,115.6l0 218.59 -82.45 0 0 -404.92 78.06 0 0 49.39z"/>
   <path class="fil1" d="M3369.72 2147.95c-27.23,45.61 -79.44,64.23 -131.77,63.84 -113.94,-0.84 -164.31,-74.77 -164.31,-179.74l0 -236.9 82.45 0 0 219.32c0,70.11 26.56,120.37 103.13,120 71.16,-0.34 106.1,-44.89 106.1,-113.41l0 -225.91 82.46 0 0 404.92 -78.06 0 0 -52.12z"/>
   <path class="fil1" d="M2565.39 1997.61l0 -0.73c0,-121.57 93.09,-213.46 215.65,-213.46 123.01,0 215.65,92.36 215.65,214.19 0,122.69 -93.45,213.45 -215.65,213.45 -122.21,0 -215.65,-90.76 -215.65,-213.45zm82.45 0l0 0.73c0,75.7 57.02,135.39 133.2,135.39 76.62,0 133.2,-60.16 133.2,-136.12 0,-75.96 -56.58,-136.13 -133.2,-136.13 -76.63,0 -133.2,60.17 -133.2,136.13z"/>
   <path class="fil1" d="M2155.3 2033.34l91.8 0 0.21 2.89c3.7,51.28 33.66,94.58 88.5,94.58 46.14,0 87.03,-36.25 87.03,-83.36 0,-63.67 -70.73,-79.01 -118.83,-96.73 -73.67,-24.13 -138.84,-62.39 -139.15,-150.24 -0.35,-97.9 81.18,-159.23 173.89,-159.23 92.66,0 160.93,57.85 166.54,152.44l0.19 3.3 -90.88 0 -0.5 -2.51c-8.88,-44.41 -28.49,-73.71 -78.29,-73.71 -42.47,0 -78.97,28.85 -78.97,73.1 0,24.86 9.15,40.58 29.67,54.2 25.86,17.17 66.5,30.25 95.88,41.11 72.1,30.56 132.43,66.36 132.43,153.87 0,104.22 -76.08,167.27 -178.27,167.27 -107.24,0 -179.69,-65.2 -181.2,-173.83l-0.05 -3.15z"/>
   <polygon class="fil1" points="1867.32,1948.27 2019,1795.15 2120.24,1795.15 1939.5,1973.66 2124.34,2200.07 2027.6,2200.07 1867.32,2000.6 1867.32,2200.07 1784.14,2200.07 1784.14,1651.5 1867.32,1651.5 "/>
   <path class="fil1" d="M1603.12 1844.54c24.84,-41.62 66.05,-60.44 115.57,-61.12l3.16 -0.04 0 82.5 -8.25 0c-74.87,0 -106.08,43.57 -106.08,115.6l0 218.59 -82.46 0 0 -404.92 78.06 0 0 49.39z"/>
   <path class="fil1" d="M1016.09 1997.61l0 -0.73c0,-121.57 93.08,-213.46 215.64,-213.46 42.45,0 81.27,11 113.92,30.41l-52.84 61.95c-18.04,-9.16 -38.7,-14.3 -61.08,-14.3 -76.62,0 -133.2,60.17 -133.2,136.13l0 0.73c0,75.7 57.02,135.39 133.2,135.39 76.62,0 133.2,-60.16 133.2,-136.12 0,-4.7 -0.22,-9.33 -0.64,-13.91l64.29 -76.55c12.13,27.23 18.8,57.78 18.8,90.46 0,122.69 -93.44,213.45 -215.65,213.45 -122.2,0 -215.64,-90.76 -215.64,-213.45z"/>
   <polygon class="fil1" points="549.06,2066.18 652.89,1651.5 722.98,1651.5 828.25,2066.88 931.38,1651.5 1025.86,1651.5 874.63,2200.07 789.95,2200.07 687.58,1798.42 585.2,2200.07 498.31,2200.07 350.05,1651.5 444.49,1651.5 "/>
   <path class="fil1" d="M1503.86 1777.1l-272.13 323.99 -111.1 -122.73c1.6,-8.3 17.01,-46.76 39.09,-65.66l72.01 74.77 220.79 -258.88 51.34 48.51z"/>
   <path class="fil2" d="M572.53 2357.26l-23.61 -33.12c3.08,-0.83 5.89,-2.02 8.43,-3.56 2.54,-1.54 4.73,-3.42 6.56,-5.62 1.83,-2.21 3.27,-4.75 4.31,-7.63 1.04,-2.87 1.57,-6.14 1.57,-9.81 0,-4.24 -0.75,-8.1 -2.25,-11.55 -1.5,-3.46 -3.65,-6.38 -6.44,-8.75 -2.79,-2.38 -6.2,-4.21 -10.25,-5.5 -4.04,-1.29 -8.56,-1.94 -13.55,-1.94l-39 0 0 87.48 15.37 0 0 -30.49 19.25 0 21.5 30.49 18.11 0zm-18.37 -58.86c0,4.5 -1.62,8.08 -4.87,10.74 -3.24,2.67 -7.62,4 -13.12,4l-22.5 0 0 -29.36 22.37 0c5.75,0 10.21,1.23 13.37,3.69 3.17,2.45 4.75,6.1 4.75,10.93zm124.08 -28.62l-64.85 0 0 87.48 65.49 0 0 -13.75 -50.12 0 0 -23.49 43.87 0 0 -13.75 -43.87 0 0 -22.74 49.48 0 0 -13.75zm88.85 -0.62l-14.25 0 -38.49 88.1 15.75 0 9 -21.12 41.36 0 8.87 21.12 16.25 0 -38.49 -88.1zm7.75 53.36l-30.12 0 14.99 -34.99 15.13 34.99zm70.47 34.74l61.36 0 0 -14 -45.99 0 0 -73.48 -15.37 0 0 87.48zm176.56 -73.23l27.75 0 0 -14.25 -70.98 0 0 14.25 27.74 0 0 73.23 15.49 0 0 -73.23zm102.72 -14.87l-14.25 0 -38.49 88.1 15.75 0 9 -21.12 41.36 0 8.87 21.12 16.25 0 -38.49 -88.1zm7.75 53.36l-30.12 0 14.99 -34.99 15.13 34.99zm70.47 34.74l61.36 0 0 -14 -45.99 0 0 -73.48 -15.37 0 0 87.48zm166.94 -87.48l-64.85 0 0 87.48 65.48 0 0 -13.75 -50.11 0 0 -23.49 43.87 0 0 -13.75 -43.87 0 0 -22.74 49.48 0 0 -13.75zm104.72 60.48l-46.86 -60.48 -14.25 0 0 87.48 15.12 0 0 -62.23 48.24 62.23 12.87 0 0 -87.48 -15.12 0 0 60.48zm99.33 -46.23l27.75 0 0 -14.25 -70.98 0 0 14.25 27.74 0 0 73.23 15.49 0 0 -73.23zm238.79 73.23l-23.61 -33.12c3.08,-0.83 5.89,-2.02 8.43,-3.56 2.54,-1.54 4.73,-3.42 6.56,-5.62 1.83,-2.21 3.27,-4.75 4.31,-7.63 1.04,-2.87 1.57,-6.14 1.57,-9.81 0,-4.24 -0.75,-8.1 -2.25,-11.55 -1.5,-3.46 -3.65,-6.38 -6.44,-8.75 -2.79,-2.38 -6.2,-4.21 -10.25,-5.5 -4.04,-1.29 -8.56,-1.94 -13.55,-1.94l-39 0 0 87.48 15.37 0 0 -30.49 19.25 0 21.5 30.49 18.11 0zm-18.37 -58.86c0,4.5 -1.62,8.08 -4.87,10.74 -3.25,2.67 -7.62,4 -13.12,4l-22.5 0 0 -29.36 22.37 0c5.75,0 10.21,1.23 13.37,3.69 3.17,2.45 4.75,6.1 4.75,10.93zm124.08 -28.62l-64.85 0 0 87.48 65.49 0 0 -13.75 -50.12 0 0 -23.49 43.87 0 0 -13.75 -43.87 0 0 -22.74 49.48 0 0 -13.75zm88.85 -0.62l-14.25 0 -38.49 88.1 15.75 0 8.99 -21.12 41.37 0 8.87 21.12 16.25 0 -38.49 -88.1zm7.75 53.36l-30.12 0 14.99 -34.99 15.13 34.99zm70.47 34.74l61.36 0 0 -14 -45.99 0 0 -73.48 -15.37 0 0 87.48zm188.31 -29.74l0 -57.74 -15.74 0 0 57.36c0,5.83 -1.27,10.14 -3.82,12.94 -2.54,2.78 -5.89,4.18 -10.05,4.18 -3.76,0 -6.98,-0.89 -9.69,-2.68 -2.71,-1.8 -5.35,-4.32 -7.94,-7.57l-10.11 10.38c2.91,4 6.62,7.35 11.11,10.05 4.5,2.72 10.13,4.06 16.87,4.06 4.34,0 8.3,-0.64 11.88,-1.93 3.58,-1.29 6.66,-3.23 9.24,-5.81 2.59,-2.58 4.6,-5.82 6.07,-9.69 1.45,-3.87 2.18,-8.39 2.18,-13.55zm133.45 -14.12c0,-6.17 -1.12,-12 -3.37,-17.5 -2.25,-5.5 -5.38,-10.29 -9.38,-14.37 -3.99,-4.09 -8.78,-7.31 -14.36,-9.69 -5.59,-2.37 -11.75,-3.56 -18.5,-3.56 -6.75,0 -12.91,1.21 -18.49,3.63 -5.59,2.42 -10.42,5.68 -14.5,9.8 -4.08,4.13 -7.25,8.94 -9.5,14.44 -2.25,5.5 -3.37,11.33 -3.37,17.5 0,6.16 1.12,11.99 3.37,17.49 2.25,5.5 5.38,10.29 9.38,14.37 4,4.08 8.79,7.31 14.36,9.68 5.59,2.38 11.75,3.57 18.5,3.57 6.75,0 12.92,-1.21 18.49,-3.63 5.59,-2.41 10.42,-5.68 14.5,-9.81 4.08,-4.12 7.25,-8.93 9.5,-14.43 2.25,-5.5 3.37,-11.33 3.37,-17.49zm-16.12 0.25c0,4.24 -0.73,8.26 -2.19,12.05 -1.45,3.79 -3.47,7.08 -6.06,9.88 -2.58,2.79 -5.68,4.99 -9.31,6.62 -3.62,1.62 -7.6,2.43 -11.93,2.43 -4.33,0 -8.33,-0.83 -11.99,-2.49 -3.67,-1.67 -6.82,-3.92 -9.44,-6.75 -2.62,-2.83 -4.67,-6.14 -6.12,-9.93 -1.46,-3.79 -2.19,-7.82 -2.19,-12.06 0,-4.26 0.73,-8.27 2.19,-12.06 1.45,-3.79 3.47,-7.09 6.06,-9.87 2.58,-2.8 5.68,-5.01 9.3,-6.63 3.63,-1.63 7.61,-2.44 11.94,-2.44 4.33,0 8.33,0.84 12,2.5 3.66,1.67 6.8,3.92 9.43,6.75 2.63,2.83 4.67,6.15 6.12,9.94 1.46,3.79 2.19,7.81 2.19,12.06zm98.72 -43.87l-39.25 0 0 87.48 40.5 0c4.83,0 9.24,-0.53 13.24,-1.56 4,-1.05 7.41,-2.59 10.24,-4.63 2.84,-2.04 5.02,-4.56 6.56,-7.56 1.55,-3 2.32,-6.46 2.32,-10.37 0,-3 -0.41,-5.65 -1.25,-7.94 -0.83,-2.29 -2.02,-4.27 -3.56,-5.93 -1.54,-1.67 -3.38,-3.1 -5.5,-4.31 -2.12,-1.21 -4.48,-2.27 -7.06,-3.19 1.58,-0.83 3.15,-1.83 4.69,-3 1.54,-1.17 2.87,-2.52 4,-4.06 1.12,-1.54 2.03,-3.36 2.74,-5.44 0.71,-2.08 1.06,-4.45 1.06,-7.12 0,-6.92 -2.57,-12.37 -7.74,-16.37 -5.17,-4 -12.17,-6 -20.99,-6zm-3.13 36.87l-20.99 0 0 -23.24 22.11 0c5.01,0 8.81,0.97 11.44,2.93 2.62,1.96 3.93,4.73 3.93,8.31 0,4.08 -1.49,7.1 -4.49,9.06 -3,1.96 -7,2.94 -12,2.94zm4.5 36.99l-25.49 0 0 -24 24.36 0c6.08,0 10.61,1.04 13.56,3.13 2.96,2.08 4.44,4.99 4.44,8.74 0,4 -1.5,7.02 -4.5,9.06 -3,2.04 -7.12,3.07 -12.37,3.07zm87.35 -50.99c0,-2.91 1.24,-5.39 3.74,-7.43 2.5,-2.04 6,-3.07 10.5,-3.07 4,0 7.96,0.78 11.87,2.32 3.92,1.54 7.88,3.76 11.87,6.68l8.25 -11.62c-4.5,-3.58 -9.31,-6.31 -14.43,-8.18 -5.13,-1.88 -10.9,-2.82 -17.31,-2.82 -4.34,0 -8.33,0.61 -12,1.81 -3.66,1.22 -6.81,2.94 -9.43,5.19 -2.63,2.25 -4.69,4.94 -6.19,8.06 -1.5,3.13 -2.25,6.6 -2.25,10.44 0,4.08 0.65,7.53 1.94,10.37 1.29,2.83 3.16,5.25 5.62,7.24 2.46,2.01 5.5,3.67 9.12,5.01 3.63,1.33 7.77,2.53 12.44,3.62 4.08,1 7.39,1.95 9.93,2.87 2.54,0.92 4.54,1.9 6,2.94 1.46,1.04 2.46,2.19 3,3.43 0.54,1.25 0.81,2.67 0.81,4.25 0,3.42 -1.4,6.13 -4.19,8.13 -2.78,1.99 -6.55,3 -11.3,3 -5.5,0 -10.42,-0.98 -14.75,-2.94 -4.33,-1.96 -8.62,-4.77 -12.87,-8.43l-9.25 10.99c5.25,4.75 10.96,8.27 17.12,10.56 6.17,2.29 12.62,3.43 19.37,3.43 4.59,0 8.79,-0.58 12.62,-1.74 3.83,-1.17 7.12,-2.88 9.88,-5.13 2.74,-2.25 4.89,-4.99 6.43,-8.24 1.54,-3.25 2.31,-6.96 2.31,-11.13 0,-3.66 -0.6,-6.85 -1.81,-9.56 -1.2,-2.7 -2.98,-5.08 -5.31,-7.12 -2.34,-2.04 -5.27,-3.77 -8.81,-5.18 -3.54,-1.42 -7.6,-2.71 -12.18,-3.88 -4.17,-1 -7.61,-1.96 -10.31,-2.87 -2.71,-0.92 -4.83,-1.92 -6.38,-3 -1.54,-1.08 -2.6,-2.25 -3.19,-3.5 -0.58,-1.25 -0.86,-2.75 -0.86,-4.5zm223.41 44.36l-26.37 -67.23 -17 0 36.37 88.1 13.5 0 36.36 -88.1 -16.62 0 -26.24 67.23zm147.45 -67.23l-64.86 0 0 87.48 65.49 0 0 -13.75 -50.12 0 0 -23.49 43.87 0 0 -13.75 -43.87 0 0 -22.74 49.49 0 0 -13.75zm117.83 87.48l-23.62 -33.12c3.09,-0.83 5.9,-2.02 8.44,-3.56 2.54,-1.54 4.73,-3.42 6.56,-5.62 1.83,-2.21 3.27,-4.75 4.31,-7.63 1.04,-2.87 1.56,-6.14 1.56,-9.81 0,-4.24 -0.75,-8.1 -2.25,-11.55 -1.49,-3.46 -3.64,-6.38 -6.43,-8.75 -2.79,-2.38 -6.21,-4.21 -10.25,-5.5 -4.04,-1.29 -8.56,-1.94 -13.56,-1.94l-38.99 0 0 87.48 15.37 0 0 -30.49 19.25 0 21.49 30.49 18.12 0zm-18.37 -58.86c0,4.5 -1.62,8.08 -4.87,10.74 -3.25,2.67 -7.63,4 -13.12,4l-22.5 0 0 -29.36 22.37 0c5.75,0 10.21,1.23 13.37,3.69 3.17,2.45 4.75,6.1 4.75,10.93zm60.1 -28.62l0 87.48 15.37 0 0 -87.48 -15.37 0zm128.59 0l-65.11 0 0 87.48 15.37 0 0 -35.62 44.11 0 0 -14 -44.11 0 0 -23.86 49.74 0 0 -14zm42.48 0l0 87.48 15.37 0 0 -87.48 -15.37 0zm128.33 0l-64.85 0 0 87.48 65.48 0 0 -13.75 -50.11 0 0 -23.49 43.86 0 0 -13.75 -43.86 0 0 -22.74 49.48 0 0 -13.75zm122.71 43.62c0,-6.17 -1.13,-11.92 -3.38,-17.25 -2.25,-5.33 -5.43,-9.96 -9.56,-13.87 -4.12,-3.92 -9.03,-6.98 -14.74,-9.18 -5.71,-2.22 -11.98,-3.32 -18.81,-3.32l-32.62 0 0 87.48 32.62 0c6.83,0 13.1,-1.13 18.81,-3.38 5.71,-2.25 10.62,-5.33 14.74,-9.25 4.13,-3.91 7.31,-8.55 9.56,-13.93 2.25,-5.37 3.38,-11.14 3.38,-17.3zm-16.12 0.25c0,4.33 -0.73,8.3 -2.19,11.93 -1.46,3.62 -3.5,6.75 -6.12,9.37 -2.63,2.62 -5.81,4.66 -9.56,6.12 -3.75,1.46 -7.92,2.19 -12.5,2.19l-17.24 0 0 -59.48 17.24 0c4.58,0 8.75,0.75 12.5,2.25 3.75,1.5 6.93,3.58 9.56,6.24 2.62,2.67 4.66,5.82 6.12,9.44 1.46,3.63 2.19,7.6 2.19,11.94zm161.81 -43.87l-64.85 0 0 87.48 65.48 0 0 -13.75 -50.11 0 0 -23.49 43.86 0 0 -13.75 -43.86 0 0 -22.74 49.48 0 0 -13.75zm79.47 67.23l-26.37 -67.23 -16.99 0 36.36 88.1 13.5 0 36.36 -88.1 -16.61 0 -26.25 67.23zm147.45 -67.23l-64.85 0 0 87.48 65.48 0 0 -13.75 -50.11 0 0 -23.49 43.86 0 0 -13.75 -43.86 0 0 -22.74 49.48 0 0 -13.75zm117.84 87.48l-23.62 -33.12c3.08,-0.83 5.9,-2.02 8.43,-3.56 2.54,-1.54 4.73,-3.42 6.56,-5.62 1.84,-2.21 3.28,-4.75 4.31,-7.63 1.05,-2.87 1.57,-6.14 1.57,-9.81 0,-4.24 -0.75,-8.1 -2.25,-11.55 -1.5,-3.46 -3.65,-6.38 -6.43,-8.75 -2.8,-2.38 -6.21,-4.21 -10.25,-5.5 -4.04,-1.29 -8.57,-1.94 -13.56,-1.94l-38.99 0 0 87.48 15.37 0 0 -30.49 19.25 0 21.49 30.49 18.12 0zm-18.37 -58.86c0,4.5 -1.63,8.08 -4.88,10.74 -3.24,2.67 -7.62,4 -13.12,4l-22.49 0 0 -29.36 22.37 0c5.75,0 10.2,1.23 13.37,3.69 3.16,2.45 4.75,6.1 4.75,10.93zm97.34 23.99l34.74 -52.61 -17.62 0 -24.74 38.74 -24.49 -38.74 -18.13 0 34.74 52.99 0 34.49 15.5 0 0 -34.87zm123.46 -29.74c0,-2.91 1.24,-5.39 3.74,-7.43 2.5,-2.04 6,-3.07 10.5,-3.07 4,0 7.96,0.78 11.87,2.32 3.92,1.54 7.88,3.76 11.87,6.68l8.25 -11.62c-4.5,-3.58 -9.31,-6.31 -14.43,-8.18 -5.13,-1.88 -10.9,-2.82 -17.31,-2.82 -4.34,0 -8.33,0.61 -12,1.81 -3.66,1.22 -6.81,2.94 -9.43,5.19 -2.63,2.25 -4.69,4.94 -6.18,8.06 -1.5,3.13 -2.26,6.6 -2.26,10.44 0,4.08 0.65,7.53 1.94,10.37 1.29,2.83 3.16,5.25 5.62,7.24 2.46,2.01 5.5,3.67 9.12,5.01 3.63,1.33 7.78,2.53 12.44,3.62 4.08,1 7.4,1.95 9.93,2.87 2.54,0.92 4.54,1.9 6,2.94 1.46,1.04 2.46,2.19 3,3.43 0.54,1.25 0.81,2.67 0.81,4.25 0,3.42 -1.39,6.13 -4.18,8.13 -2.79,1.99 -6.56,3 -11.31,3 -5.5,0 -10.41,-0.98 -14.75,-2.94 -4.33,-1.96 -8.62,-4.77 -12.87,-8.43l-9.25 10.99c5.25,4.75 10.96,8.27 17.12,10.56 6.17,2.29 12.62,3.43 19.37,3.43 4.59,0 8.79,-0.58 12.62,-1.74 3.83,-1.17 7.13,-2.88 9.88,-5.13 2.75,-2.25 4.89,-4.99 6.43,-8.24 1.54,-3.25 2.31,-6.96 2.31,-11.13 0,-3.66 -0.6,-6.85 -1.81,-9.56 -1.2,-2.7 -2.98,-5.08 -5.31,-7.12 -2.33,-2.04 -5.27,-3.77 -8.81,-5.18 -3.54,-1.42 -7.6,-2.71 -12.18,-3.88 -4.17,-1 -7.61,-1.96 -10.31,-2.87 -2.71,-0.92 -4.83,-1.92 -6.37,-3 -1.54,-1.08 -2.61,-2.25 -3.19,-3.5 -0.59,-1.25 -0.87,-2.75 -0.87,-4.5zm126.82 -8.62l27.75 0 0 -14.25 -70.98 0 0 14.25 27.74 0 0 73.23 15.49 0 0 -73.23zm133.58 -14.25l-64.85 0 0 87.48 65.48 0 0 -13.75 -50.11 0 0 -23.49 43.86 0 0 -13.75 -43.86 0 0 -22.74 49.48 0 0 -13.75zm111.34 29.37c0,-4.5 -0.77,-8.54 -2.31,-12.12 -1.55,-3.58 -3.75,-6.66 -6.62,-9.25 -2.88,-2.58 -6.38,-4.56 -10.51,-5.94 -4.11,-1.37 -8.72,-2.06 -13.8,-2.06l-34.49 0 0 87.48 15.37 0 0 -28.12 17.37 0c4.83,0 9.37,-0.64 13.62,-1.94 4.25,-1.29 7.96,-3.18 11.12,-5.68 3.17,-2.5 5.67,-5.62 7.5,-9.38 1.83,-3.75 2.75,-8.08 2.75,-12.99zm-15.62 0.38c0,4.74 -1.69,8.55 -5.06,11.43 -3.38,2.87 -7.98,4.31 -13.81,4.31l-17.87 0 0 -31.49 17.87 0c5.75,0 10.33,1.31 13.75,3.94 3.41,2.62 5.12,6.56 5.12,11.81zm-2923.58 57.73l0 -17.12 -16.62 0 0 17.12 16.62 0zm1027.63 0l0 -17.12 -16.62 0 0 17.12 16.62 0zm1965.92 0l0 -17.12 -16.62 0 0 17.12 16.62 0z"/>
  </g>
 </g>
</svg>
